<svg xmlns:xlink="http://www.w3.org/1999/xlink"  width="40" height="40" viewBox="0 0 40 40" fill="none" xmlns="http://www.w3.org/2000/svg">
                <path d="M2.59998 21.0996H5.69998C6.39998 21.0996 6.89998 20.5996 6.99998 19.9996C7.59998 13.2996 13.2 8.09961 20 8.09961C26.8 8.09961 32.5 13.3996 33 19.9996C33.1 20.6996 33.6 21.0996 34.3 21.0996H37.4" stroke="#00178F" stroke-width="1.5" stroke-miterlimit="10"></path>
                <path d="M34.6001 37.1002L31.8 36.4002L34.3 27.7002L37.1001 28.5002C37.6001 28.7002 37.9 29.2002 37.8 29.7002L35.8 36.5002C35.7 37.0002 35.1001 37.3002 34.6001 37.1002Z" stroke="#00178F" stroke-width="1.5" stroke-miterlimit="10"></path>
                <path d="M31.5 37.3002C31.4 37.8002 30.8 38.1002 30.3 38.0002L27.2 37.1002C26.7 37.0002 26.4 36.4002 26.5 35.9002L29.5 25.3002C29.6 24.8002 30.2 24.5002 30.7 24.6002L33.8 25.5002C34.3 25.6002 34.6 26.2002 34.5 26.7002L31.5 37.3002Z" stroke="#00178F" stroke-width="1.5" stroke-miterlimit="10"></path>
                <path d="M5.49992 37.1001L8.29992 36.3001L5.79992 27.6001L2.99992 28.4001C2.49992 28.6001 2.19992 29.1001 2.29992 29.6001L4.19992 36.4001C4.39992 37.0001 4.99992 37.3001 5.49992 37.1001Z" stroke="#00178F" stroke-width="1.5" stroke-miterlimit="10"></path>
                <path d="M8.59997 37.3002C8.69997 37.8002 9.29997 38.1002 9.79997 38.0002L12.9 37.1002C13.4 37.0002 13.7 36.4002 13.6 35.9002L10.6 25.3002C10.5 24.8002 9.89997 24.5002 9.39997 24.6002L6.29997 25.5002C5.79997 25.6002 5.49997 26.2002 5.59997 26.7002L8.59997 37.3002Z" stroke="#00178F" stroke-width="1.5" stroke-miterlimit="10"></path>
                <path d="M36.1 28.0996C37 25.9996 37.6 23.5996 37.6 21.0996C37.6 11.3996 29.8 3.59961 20.1 3.59961C10.4 3.59961 2.59998 11.3996 2.59998 21.0996C2.59998 23.5996 3.09998 25.9996 4.09998 28.0996" stroke="#00178F" stroke-width="1.5" stroke-miterlimit="10" stroke-linecap="round"></path>
            </svg>