<svg xmlns:xlink="http://www.w3.org/1999/xlink"  width="40" height="40" viewBox="0 0 40 40" fill="none" xmlns="http://www.w3.org/2000/svg">
                <path d="M26.0001 31.8994H12.7001V34.5994H26.0001V31.8994Z" fill="#E0EBFF"></path>
                <path d="M6.40002 34.5998L10.2 6.2998" stroke="#00178F" stroke-width="1.5" stroke-miterlimit="10" stroke-linecap="round" stroke-linejoin="round"></path>
                <path d="M26 34.5998C26 31.0998 28.8 28.2998 32.3 28.2998C35.8 28.2998 38.6 31.0998 38.6 34.5998" stroke="#00178F" stroke-width="1.5" stroke-miterlimit="10" stroke-linecap="round" stroke-linejoin="round"></path>
                <path d="M32.3001 37.7994C34.0674 37.7994 35.5001 36.3667 35.5001 34.5994C35.5001 32.8321 34.0674 31.3994 32.3001 31.3994C30.5328 31.3994 29.1001 32.8321 29.1001 34.5994C29.1001 36.3667 30.5328 37.7994 32.3001 37.7994Z" fill="#E0EBFF" stroke="#00178F" stroke-width="1.5" stroke-miterlimit="10" stroke-linecap="round"></path>
                <path d="M6.00007 37.6999C6.70007 37.7999 7.40007 37.2999 7.50007 36.5999L8.00007 32.7999C8.10007 32.0999 7.60007 31.3999 6.90007 31.2999C6.20007 31.1999 5.50007 31.6999 5.40007 32.3999L4.90007 36.1999C4.80007 36.9999 5.30007 37.6999 6.00007 37.6999Z" fill="#E0EBFF" stroke="#00178F" stroke-width="1.5" stroke-miterlimit="10" stroke-linecap="round"></path>
                <path d="M17.4 6.29941L3.30005 4.39941" stroke="#00178F" stroke-width="1.5" stroke-miterlimit="10" stroke-linecap="round" stroke-linejoin="round"></path>
                <path d="M7.30007 28.2998H3.20007" stroke="#00178F" stroke-width="1.5" stroke-miterlimit="10" stroke-linecap="round" stroke-linejoin="round"></path>
                <path d="M32.3001 34.5998H12.7001C12.7001 31.3998 10.3001 28.7998 7.20007 28.2998" stroke="#00178F" stroke-width="1.5" stroke-miterlimit="10" stroke-linecap="round" stroke-linejoin="round"></path>
                <path d="M18.4001 31.8994H12.1001" stroke="#00178F" stroke-width="1.5" stroke-miterlimit="10" stroke-linecap="round" stroke-linejoin="round"></path>
                <path d="M26.6 31.8994H22.8" stroke="#00178F" stroke-width="1.5" stroke-miterlimit="10" stroke-linecap="round" stroke-linejoin="round"></path>
            </svg>