<svg xmlns:xlink="http://www.w3.org/1999/xlink"  width="40" height="40" viewBox="0 0 40 40" fill="none" xmlns="http://www.w3.org/2000/svg">
                <path d="M15.9 22.0998H13.5V19.6998C13.5 19.1998 13.1 18.7998 12.6 18.7998H11.2C10.7 18.7998 10.3 19.1998 10.3 19.6998V22.0998H7.89999C7.39999 22.0998 7 22.4998 7 22.9998V24.3998C7 24.8998 7.39999 25.2998 7.89999 25.2998H10.3V27.6998C10.3 28.1998 10.7 28.5998 11.2 28.5998H12.6C13.1 28.5998 13.5 28.1998 13.5 27.6998V25.2998H15.9C16.4 25.2998 16.8 24.8998 16.8 24.3998V22.9998C16.9 22.4998 16.5 22.0998 15.9 22.0998Z" stroke="#00178F" stroke-width="1.5" stroke-miterlimit="10" stroke-linecap="round"></path>
                <path d="M25.5 23.3996C26.5493 23.3996 27.4 22.549 27.4 21.4996C27.4 20.4503 26.5493 19.5996 25.5 19.5996C24.4506 19.5996 23.6 20.4503 23.6 21.4996C23.6 22.549 24.4506 23.3996 25.5 23.3996Z" stroke="#00178F" stroke-width="1.5" stroke-miterlimit="10"></path>
                <path d="M29.8 27.6994C30.8493 27.6994 31.7 26.8488 31.7 25.7994C31.7 24.7501 30.8493 23.8994 29.8 23.8994C28.7506 23.8994 27.9 24.7501 27.9 25.7994C27.9 26.8488 28.7506 27.6994 29.8 27.6994Z" stroke="#00178F" stroke-width="1.5" stroke-miterlimit="10"></path>
                <path d="M28.3999 15.5996H19.9999H11.5999C6.89995 15.5996 3.19995 19.3996 3.19995 23.9996C3.19995 28.6996 6.99995 32.3996 11.5999 32.3996C12.8999 32.3996 14.1 32.0996 15.2 31.5996C15.6 31.3996 15.9 31.0996 16.3 30.8996C17.4 30.3996 18.5999 30.0996 19.8999 30.0996C21.1999 30.0996 22.3999 30.3996 23.4999 30.8996C23.8999 31.0996 24.2999 31.2996 24.5999 31.5996C25.6999 32.0996 26.9 32.3996 28.2 32.3996C32.9 32.3996 36.5999 28.5996 36.5999 23.9996C36.8999 19.3996 33.0999 15.5996 28.3999 15.5996Z" stroke="#00178F" stroke-width="1.5" stroke-miterlimit="10" stroke-linecap="round"></path>
                <path d="M19.6 4C19.6 4.7 19 5.3 18.3 5.3H10.9C10.2 5.3 9.59998 5.9 9.59998 6.6C9.59998 7.3 10.2 7.9 10.9 7.9H25.5C26.2 7.9 26.8 8.5 26.8 9.2C26.8 9.9 26.2 10.5 25.5 10.5H21.3C20.6 10.5 20 11.1 20 11.8V12.8" stroke="#00178F" stroke-width="1.5" stroke-miterlimit="10" stroke-linecap="round"></path>
            </svg>