<svg xmlns:xlink="http://www.w3.org/1999/xlink"  width="40" height="40" viewBox="0 0 40 40" fill="none" xmlns="http://www.w3.org/2000/svg">
                <path d="M23.7001 17.2002L29.3001 30.9002" stroke="#00178F" stroke-width="1.5" stroke-miterlimit="10" stroke-linecap="round"></path>
                <path d="M14.8 10.1999V3.19995C14.8 1.49995 17.1 0.999949 17.9 2.49995L22.2 13.2999" stroke="#00178F" stroke-width="1.5" stroke-miterlimit="10" stroke-linecap="round"></path>
                <path d="M32.3 33.2998C32.3 31.8998 31.2 30.7998 29.8 30.7998C28.4 30.7998 27.3 31.8998 27.3 33.2998" stroke="#00178F" stroke-width="1.5" stroke-miterlimit="10" stroke-linecap="round"></path>
                <path d="M17.9 17.2998V11.2998C17.9 10.6998 17.5 10.2998 16.9 10.2998H13C12.4 10.2998 12 10.6998 12 11.2998V13.7979" stroke="#00178F" stroke-width="1.5" stroke-miterlimit="10" stroke-linecap="round"></path>
                <path d="M3.90005 20.2998C4.60005 16.4998 7.90005 13.7998 11.8 13.7998H14.4C16.3 13.7998 17.9 15.3998 17.9 17.2998V33.8998C17.9 35.9998 16.2 37.6998 14.1 37.6998H7.50005C3.90005 37.6998 1.20005 34.3998 1.90005 30.8998L2.90005 25.7998L3.90005 20.2998Z" stroke="#00178F" stroke-width="1.5" stroke-miterlimit="10" stroke-linecap="round"></path>
                <path d="M14.4 37.5998C17.3823 37.5998 19.8 35.1821 19.8 32.1998C19.8 29.2175 17.3823 26.7998 14.4 26.7998C11.4177 26.7998 9 29.2175 9 32.1998C9 35.1821 11.4177 37.5998 14.4 37.5998Z" fill="white" stroke="#00178F" stroke-width="1.5" stroke-miterlimit="10" stroke-linecap="round" stroke-linejoin="round"></path>
                <path d="M14.4 34.0998C15.4493 34.0998 16.3 33.2491 16.3 32.1998C16.3 31.1505 15.4493 30.2998 14.4 30.2998C13.3507 30.2998 12.5 31.1505 12.5 32.1998C12.5 33.2491 13.3507 34.0998 14.4 34.0998Z" fill="white" stroke="#00178F" stroke-width="1.5" stroke-miterlimit="10"></path>
                <path d="M33.9 33.5996H24.7C24.1 33.5996 23.7 33.9996 23.7 34.5996C23.7 36.2996 25 37.5996 26.7 37.5996H37.9C37.9 35.3996 36.1 33.5996 33.9 33.5996Z" stroke="#00178F" stroke-width="1.5" stroke-miterlimit="10" stroke-linecap="round"></path>
                <path d="M12.2 22.3002V17.2002C9.3 17.2002 7.7 19.3002 7.2 22.2002L6.5 25.8002" stroke="#00178F" stroke-width="1.5" stroke-miterlimit="10" stroke-linecap="round" stroke-linejoin="round"></path>
            </svg>