<svg xmlns:xlink="http://www.w3.org/1999/xlink"  width="40" height="40" viewBox="0 0 40 40" fill="none" xmlns="http://www.w3.org/2000/svg">
                <path d="M35.2999 24C35.3999 25 34.6999 25.8 33.6999 25.8H6.29994C5.29994 25.8 4.59993 25 4.69993 24L6.59994 9.8C6.69994 8.8 7.69993 8 8.69993 8H31.2999C32.2999 8 33.1999 8.8 33.3999 9.8L35.2999 24Z" stroke="#00178F" stroke-width="1.5" stroke-miterlimit="10"></path>
                <path d="M25.9 29.2002H3.20001C2.50001 29.2002 1.90002 29.8002 1.90002 30.5002C1.90002 31.2002 2.50001 31.8002 3.20001 31.8002H36.7C37.4 31.8002 38 31.2002 38 30.5002C38 29.8002 37.4 29.2002 36.7 29.2002H34.5" stroke="#00178F" stroke-width="1.5" stroke-miterlimit="10" stroke-linecap="round"></path>
            </svg>