<svg xmlns:xlink="http://www.w3.org/1999/xlink"  width="40" height="40" viewBox="0 0 40 40" fill="none" xmlns="http://www.w3.org/2000/svg">
                <path d="M25.4 4.09961H28.2C28.9 4.09961 29.5 4.69961 29.5 5.39961C29.5 6.09961 28.9 6.69961 28.2 6.69961H9.29999C8.59999 6.69961 8 6.09961 8 5.39961C8 4.69961 8.59999 4.09961 9.29999 4.09961H18.8" stroke="#00178F" stroke-width="1.5" stroke-miterlimit="10" stroke-linecap="round"></path>
                <path d="M19 33.9998C20.436 33.9998 21.6 32.8357 21.6 31.3998C21.6 29.9639 20.436 28.7998 19 28.7998C17.5641 28.7998 16.4 29.9639 16.4 31.3998C16.4 32.8357 17.5641 33.9998 19 33.9998Z" stroke="#00178F" stroke-width="1.5" stroke-miterlimit="10"></path>
                <path d="M24.9 32.7998C25.7285 32.7998 26.4 32.1282 26.4 31.2998C26.4 30.4714 25.7285 29.7998 24.9 29.7998C24.0716 29.7998 23.4 30.4714 23.4 31.2998C23.4 32.1282 24.0716 32.7998 24.9 32.7998Z" fill="white"></path>
                <path d="M28.5001 36.3998H9.6001C9.0001 36.3998 8.6001 35.9998 8.6001 35.3998V29.2998C8.6001 27.5998 9.9001 26.2998 11.6001 26.2998H26.5001C28.2001 26.2998 29.5001 27.5998 29.5001 29.2998V35.3998C29.5001 35.9998 29.0001 36.3998 28.5001 36.3998Z" stroke="#00178F" stroke-width="1.5" stroke-miterlimit="10"></path>
                <path d="M16 4.1V3C16 2.2 16.7 1.5 17.5 1.5H20.5C21.3 1.5 22 2.2 22 3C22 3.6 21.5 4.1 20.9 4.1H16Z" stroke="#00178F" stroke-width="1.5" stroke-miterlimit="10" stroke-linecap="round"></path>
                <path d="M12.4 22.1992C17.8 19.9992 19.1 24.9992 25.5 22.1992H12.4Z" fill="white"></path>
                <path d="M12.4 22.1992C17.8 19.9992 19.1 24.9992 25.5 22.1992" stroke="#00178F" stroke-width="1.5" stroke-miterlimit="10"></path>
                <path d="M24.9001 26.2992H13.1001L9.80005 6.69922H28.2L24.9001 26.2992Z" stroke="#00178F" stroke-width="1.5" stroke-miterlimit="10"></path>
                <path d="M27.8001 10.6992H33.3001C33.3001 10.6992 33.2001 19.0992 25.6001 22.1992" stroke="#00178F" stroke-width="1.5" stroke-miterlimit="10" stroke-linecap="round" stroke-linejoin="round"></path>
            </svg>