<svg xmlns:xlink="http://www.w3.org/1999/xlink"  width="40" height="40" viewBox="0 0 40 40" fill="none" xmlns="http://www.w3.org/2000/svg">
                <path d="M37.2 26.9002C37.2 27.9002 36.4 28.7002 35.4 28.7002H4.70002C3.70002 28.7002 2.90002 27.9002 2.90002 26.9002V10.0002C2.90002 9.0002 3.70002 8.2002 4.70002 8.2002H35.4C36.4 8.2002 37.2 9.0002 37.2 10.0002V26.9002Z" stroke="#00178F" stroke-width="1.5" stroke-miterlimit="10"></path>
                <path d="M25.3 31.9998H27.3C28 31.9998 28.6 32.5998 28.6 33.2998C28.6 33.9998 28 34.5998 27.3 34.5998H12.7C12 34.5998 11.4 33.9998 11.4 33.2998C11.4 32.5998 12 31.9998 12.7 31.9998H17V28.7998" stroke="#00178F" stroke-width="1.5" stroke-miterlimit="10" stroke-linecap="round"></path>
            </svg>